<svg id="Layer_1" data-name="Layer 1"
    xmlns="http://www.w3.org/2000/svg" viewBox="0 0 339.91 473.34">
    <title>Printinkz Logo</title>
    <defs>
        <style>.cls-1{fill:#00663f;}.cls-2{fill:#243665;}.cls-3{fill:red;}.cls-4{fill:#b59510;}.cls-5{fill:#ce375c;}.cls-6{fill:#696969;}.cls-7{fill:#009ddc;}.cls-8{fill:#ed642b;}</style>
    </defs>
    <path class="cls-1" d="M434.32,189.58c-1.14,4-2.05,7.59-3.21,11.11a114.9,114.9,0,0,1-15.31,30.88,111.61,111.61,0,0,1-34.86,31.8,154.47,154.47,0,0,1-41.41,16.52c-22.89,5.74-46.2,7.49-69.71,7.45-26.08,0-52.17,0-78.26,0-1.65,0-2.13.43-2.13,2.1q.07,49,0,97.91c0,11.49.12,23,.16,34.46q.08,15.68.1,31.33a21.41,21.41,0,0,1-.11,4.09,4,4,0,0,1-4.31,3.41,4.19,4.19,0,0,1-3.67-4.32c0-4.83,0-9.65,0-14.48,0-3,0-6,0-9A4.38,4.38,0,0,0,178,428.6a4.2,4.2,0,0,0-4.22,2.34,5.69,5.69,0,0,0-.33,2c0,6.95.05,13.9.05,20.86a8.14,8.14,0,0,1-.32,2.7,4.18,4.18,0,0,1-4.27,2.57,4.4,4.4,0,0,1-3.73-4.15c-.11-3.67-.07-7.35-.11-11-.08-7.06-.15-14.12-.26-21.18a3.89,3.89,0,0,0-3.91-4.13c-2.36,0-3.84,1.72-3.84,4.29q0,19.9,0,39.81c0,2.74-1.58,4.68-3.88,4.84-2,.14-4.12-1.79-4.25-4.34-.24-5.09-.3-10.19-.34-15.29q-.15-18.87-.21-37.73c0-2.07.15-4.13.13-6.2a4.57,4.57,0,0,0-2.69-4.09,3.84,3.84,0,0,0-4.52,1.61,8.38,8.38,0,0,0-.75,3.63c-.09,4.41-.07,8.83,0,13.25q0,17,.13,33.94c0,7.41.08,14.82.06,22.23a8.34,8.34,0,0,1-.54,3.5,4,4,0,0,1-4.51,2.07,4.44,4.44,0,0,1-3.16-4.28c-.08-4.82-.11-9.64-.14-14.46,0-6.72,0-13.44-.09-20.16a4,4,0,0,0-8.09,0c0,7.81.07,15.62.09,23.44,0,6.76.08,13.53,0,20.3,0,2.7-3,4.73-5.1,3.75a5.13,5.13,0,0,1-3-5c0-5.1-.06-10.2-.07-15.29,0-8.89,0-17.78,0-26.68,0-5.45-.17-10.9-.23-16.36,0-4,0-8-.08-12.06a7.55,7.55,0,0,0-.94-3.38,3.56,3.56,0,0,0-4.26-1.77,4.16,4.16,0,0,0-3,4c0,8.21,0,16.42.07,24.64,0,4.88.08,9.76,0,14.64a4,4,0,0,1-3.81,4,4.21,4.21,0,0,1-4.24-3.13,20.83,20.83,0,0,1-.18-4.11c0-7.07,0-14.13,0-21.19q-.21-92.82-.43-185.63c0-1.38,0-2.76,0-4.14-.31-9,6.5-16,13.66-17.55a18.48,18.48,0,0,1,3.94-.25q67.83,0,135.66,0a201.41,201.41,0,0,0,36.19-3c12-2.19,23.67-5.57,34-12.52a52.73,52.73,0,0,0,13.73-13.16,2.78,2.78,0,0,1,2.69-1.08h95.57Z" transform="translate(-98.9 -15.56)"/>
    <path class="cls-1" d="M434.74,112.6c-.88.06-1.48.14-2.09.14q-46.89,0-93.77,0a2.89,2.89,0,0,1-2.8-1.5c-6-9.57-14.7-15.58-25.15-19.38-13-4.73-26.57-6.73-40.31-7.49-9.23-.51-18.49-.67-27.73-.7q-47-.14-93.94,0c-4.83,0-9.65.2-14.48.2-12.5,0-22.37-5.1-29.58-15.31a32.14,32.14,0,0,1-5-11.82A23.92,23.92,0,0,1,99,51c.38-15.08,7.12-26.18,21-32.52a31.54,31.54,0,0,1,13.32-3c51.25.11,102.5,0,153.75.22a299.85,299.85,0,0,1,30.07,2,254.5,254.5,0,0,1,26.36,4c19.6,4.21,37.4,12.37,52.77,25.46A113.81,113.81,0,0,1,430.6,98.4c.77,2.28,1.48,4.58,2.16,6.89S434,109.93,434.74,112.6Z" transform="translate(-98.9 -15.56)"/>
    <path class="cls-2" d="M386.49,150.45q25.08,0,50.16,0c1.58,0,2.18.35,2.16,2.11-.11,7.52-.05,15.05-.05,22.58a2.84,2.84,0,0,1-2.87,3.11c-6.44.05-12.87.06-19.31,0-.53,0-1.34-.8-1.51-1.38a36.5,36.5,0,0,1-1.14-5.38c-.24-1.75-1-2.36-2.84-2.35-14.31.07-28.61,0-42.92,0-2.3,0-4.6.06-6.89,0-1.48-.06-2.2.45-2.42,2-.28,1.92-.82,3.81-1.19,5.73-.2,1.1-.75,1.48-1.89,1.47-6.15-.05-12.29,0-18.44,0-2.22,0-2.92-.7-2.92-2.84,0-7.76,0-15.51,0-23.27,0-1.44.47-1.71,1.78-1.71Q361.33,150.48,386.49,150.45ZM345.4,172.6h0c1.21,0,2.41,0,3.61,0s1.73-.47,1.73-1.72-.38-1.82-1.67-1.8q-3.76.06-7.55,0c-1.23,0-1.57.58-1.53,1.71s.16,1.83,1.46,1.79S344.09,172.6,345.4,172.6Z" transform="translate(-98.9 -15.56)"/>
    <path class="cls-2" d="M435.5,146.82H336.93c.7-.72,1.12-1.18,1.58-1.6,2.79-2.56,5.62-5.08,8.39-7.66a6.39,6.39,0,0,1,4.53-1.77c23.32,0,46.64,0,70,.06a6.71,6.71,0,0,1,3.93,1.4c3.35,2.78,6.5,5.81,9.73,8.75A4.2,4.2,0,0,1,435.5,146.82Z" transform="translate(-98.9 -15.56)"/>
    <path class="cls-2" d="M387.52,132.25c-6.83,0-13.66,0-20.49,0-1.47,0-1.85-.45-1.79-1.88.11-2.92,0-5.85,0-8.78,0-2.27,1-3.22,3.23-3.22q18.93,0,37.87,0c2.42,0,3.47,1,3.48,3.39,0,2.86-.08,5.74,0,8.6.07,1.51-.51,1.87-1.88,1.86C401.18,132.22,394.35,132.25,387.52,132.25Z" transform="translate(-98.9 -15.56)"/>
    <path class="cls-3" d="M388.34,185.23a15,15,0,0,1-.27-2c0-3.15,0-6.31,0-9.46,0-1.12.3-1.65,1.58-1.6,3.86.16,3.86.11,4.71,4,.56,2.56,1.09,5.14,1.68,7.69.22,1-.08,1.39-1.08,1.38Z" transform="translate(-98.9 -15.56)"/>
    <path class="cls-4" d="M376.2,185.22c.49-1.58,1-2.84,1.28-4.16.54-2.66.95-5.35,1.41-8a.79.79,0,0,1,0-.17c1-1.71,2.71-.68,4.08-.89.8-.12,1.68,0,1.68,1.19,0,3.68,0,7.35,0,11,0,.34-.55,1-.85,1C381.38,185.26,379,185.22,376.2,185.22Z" transform="translate(-98.9 -15.56)"/>
    <path class="cls-5" d="M365.7,185.1c.53-1.06.95-1.81,1.3-2.6,1.26-2.88,2.54-5.77,3.71-8.69A2.05,2.05,0,0,1,373,172.3c3.55.17,3.55.12,2.81,3.57-.64,3-1.27,6-1.93,9.23Z" transform="translate(-98.9 -15.56)"/>
    <path class="cls-6" d="M402.47,185.24c-3.78,0-3.73,0-4.4-3.7-.45-2.47-1-4.91-1.59-7.36-.38-1.64-.08-1.75,1.52-1.91,2.93-.31,4,1.23,4.9,3.68s2.21,5,3.37,7.52c.64,1.37.45,1.73-1,1.76C404.31,185.25,403.39,185.24,402.47,185.24Z" transform="translate(-98.9 -15.56)"/>
    <path class="cls-7" d="M416.65,185.23c-2.37,0-4.48.05-6.58,0-.38,0-.89-.57-1.09-1-1.65-3.6-3.27-7.22-4.82-10.87a1.42,1.42,0,0,1,.55-1.28,4.27,4.27,0,0,1,4.8,1.49c2.3,3.41,4.6,6.82,6.86,10.25A4.94,4.94,0,0,1,416.65,185.23Z" transform="translate(-98.9 -15.56)"/>
    <path class="cls-8" d="M356,185.14a5.59,5.59,0,0,1,.45-1.53c2.37-3.56,4.79-7.09,7.16-10.65.64-1,3.72-1.38,4.37-.43a2.06,2.06,0,0,1-.11,1.56c-1.19,2.91-2.46,5.79-3.67,8.7-.31.72-.5,1.49-.77,2.35Z" transform="translate(-98.9 -15.56)"/>
</svg>